<svg xmlns="http://www.w3.org/2000/svg" width="1379.508" height="18.293"><g data-name="Group 3660"><path data-name="Line 2" fill="none" stroke="#fff" stroke-width="2" d="m.004 3.649 1379.5 5.563"/><g data-name="Ellipse 651" transform="rotate(-90 593.648 -575.356)" fill="#273142" stroke="#fe0" stroke-width="2"><circle cx="9.146" cy="9.146" r="9.146" stroke="none"/><circle cx="9.146" cy="9.146" r="8.146" fill="none"/></g><g data-name="Ellipse 652" transform="rotate(-90 606.12 -591.155)" fill="#273142" stroke="#fff" stroke-width="2"><circle cx="5.82" cy="5.82" r="5.82" stroke="none"/><circle cx="5.82" cy="5.82" r="4.82" fill="none"/></g><g data-name="Ellipse 653" transform="rotate(-90 638.549 -623.583)" fill="#273142" stroke="#fff" stroke-width="2"><circle cx="5.82" cy="5.82" r="5.82" stroke="none"/><circle cx="5.82" cy="5.82" r="4.82" fill="none"/></g><g data-name="Ellipse 654" transform="rotate(-90 627.74 -612.774)" fill="#273142" stroke="#fff" stroke-width="2"><circle cx="5.82" cy="5.82" r="5.82" stroke="none"/><circle cx="5.82" cy="5.82" r="4.82" fill="none"/></g><g data-name="Group 3656"><g data-name="Ellipse 655" transform="rotate(-90 649.359 -634.392)" fill="#273142" stroke="#fff" stroke-width="2"><circle cx="5.82" cy="5.82" r="5.82" stroke="none"/><circle cx="5.82" cy="5.82" r="4.82" fill="none"/></g></g><g data-name="Ellipse 656" transform="rotate(-90 616.93 -601.964)" fill="#273142" stroke="#fff" stroke-width="2"><circle cx="5.82" cy="5.82" r="5.82" stroke="none"/><circle cx="5.82" cy="5.82" r="4.82" fill="none"/></g></g></svg>